<?xml version="1.0" standalone="no"?>
<!DOCTYPE svg PUBLIC "-//W3C//DTD SVG 20010904//EN"
 "http://www.w3.org/TR/2001/REC-SVG-20010904/DTD/svg10.dtd">
<svg version="1.0" xmlns="http://www.w3.org/2000/svg"
 width="772.000000pt" height="772.000000pt" viewBox="0 0 772.000000 772.000000"
 preserveAspectRatio="xMidYMid meet">
<metadata>
Created by potrace 1.14, written by Peter Selinger 2001-2017
</metadata>
<g transform="translate(0.000000,772.000000) scale(0.100000,-0.100000)"
fill="#000000" stroke="none">
<path d="M3700 7706 c-78 -25 -168 -83 -240 -156 -33 -33 -76 -113 -150 -275
-17 -38 -36 -77 -41 -85 -5 -8 -12 -22 -15 -30 -13 -33 -40 -90 -92 -200 -30
-63 -73 -153 -94 -200 -22 -47 -57 -121 -78 -165 -72 -154 -122 -260 -142
-305 -11 -25 -24 -52 -29 -60 -5 -8 -14 -26 -20 -40 -5 -14 -21 -47 -34 -75
-12 -27 -39 -84 -58 -125 -127 -274 -251 -540 -265 -565 -9 -16 -17 -34 -18
-40 -1 -5 -30 -68 -64 -140 -34 -71 -72 -152 -85 -180 -77 -164 -123 -261
-165 -350 -26 -55 -58 -122 -70 -150 -12 -27 -56 -119 -96 -204 -41 -84 -74
-154 -74 -156 0 -6 -151 -329 -291 -624 -38 -79 -69 -145 -69 -146 0 -2 -20
-45 -44 -97 -24 -51 -60 -129 -80 -173 -20 -44 -41 -87 -47 -95 -5 -8 -12 -22
-15 -30 -3 -8 -19 -43 -35 -78 -16 -35 -29 -67 -29 -72 0 -6 -5 -10 -12 -10
-6 0 -9 -3 -5 -6 3 -3 -9 -36 -28 -72 -18 -37 -76 -159 -128 -272 -52 -113
-122 -262 -156 -333 -33 -70 -61 -129 -61 -131 0 -2 -29 -64 -64 -137 -35 -74
-75 -159 -89 -189 -14 -30 -45 -98 -70 -150 -24 -52 -55 -117 -67 -145 -12
-27 -38 -81 -56 -118 -36 -74 -87 -207 -78 -207 2 0 0 -9 -6 -19 -30 -58 -34
-328 -6 -436 52 -196 169 -372 323 -487 29 -21 55 -37 57 -36 2 2 12 -4 22
-13 42 -36 178 -86 299 -110 66 -13 258 -17 346 -7 65 7 279 57 294 68 6 4 28
13 50 20 73 23 268 122 320 162 6 4 44 33 85 63 209 155 373 356 490 601 l52
110 107 4 c58 2 541 4 1072 5 845 0 967 -2 980 -15 8 -8 32 -51 54 -95 54
-109 144 -254 182 -293 7 -7 13 -17 13 -22 0 -9 212 -226 255 -261 119 -94
200 -146 325 -207 115 -55 344 -131 358 -118 2 3 12 1 21 -3 42 -23 349 -35
431 -17 100 21 129 29 194 56 135 57 262 154 355 273 45 58 113 169 117 192 1
5 8 24 15 40 18 44 17 42 39 140 21 90 23 236 5 325 -12 60 -13 65 -15 65 -1
0 -3 7 -5 15 -7 30 -34 97 -75 185 -85 180 -128 271 -155 330 -50 109 -102
220 -235 500 -52 110 -122 258 -162 345 -49 105 -92 197 -153 325 -31 66 -72
154 -91 195 -19 41 -39 83 -44 92 -6 10 -10 25 -10 33 0 8 -4 15 -10 15 -5 0
-10 9 -10 20 0 11 -4 20 -10 20 -5 0 -10 6 -10 13 0 6 -15 44 -34 82 -40 82
-125 261 -171 360 -94 201 -115 248 -115 256 0 5 -4 9 -10 9 -5 0 -10 8 -10
18 0 10 -4 22 -9 27 -5 6 -25 46 -44 90 -19 44 -55 123 -80 175 -25 52 -66
140 -92 195 -27 55 -72 151 -101 213 -30 62 -54 114 -54 117 0 2 -27 59 -59
127 -97 202 -205 430 -281 593 -18 39 -57 121 -86 183 -30 63 -54 115 -54 117
0 2 -34 74 -75 160 -41 86 -85 177 -96 203 -12 25 -45 95 -75 154 -29 60 -53
111 -54 113 -1 5 -53 117 -120 260 -57 121 -179 382 -212 455 -130 282 -226
453 -286 506 -45 39 -136 83 -207 99 -76 18 -230 18 -285 1z m252 -272 c72
-37 115 -100 225 -339 28 -60 77 -164 109 -230 31 -66 56 -121 56 -122 0 -1
24 -52 54 -113 30 -60 54 -112 54 -114 0 -3 38 -85 85 -182 47 -97 85 -178 85
-180 0 -1 26 -58 59 -126 32 -68 70 -148 84 -179 29 -65 94 -202 146 -309 19
-41 36 -77 36 -80 1 -3 34 -72 74 -155 40 -82 90 -188 111 -235 21 -47 59
-130 86 -185 26 -55 48 -102 49 -105 1 -3 22 -48 47 -100 97 -202 270 -570
273 -580 1 -3 20 -43 42 -90 83 -173 173 -362 173 -365 0 -1 34 -73 75 -159
41 -86 75 -158 75 -160 0 -2 26 -57 57 -122 31 -66 57 -121 58 -124 1 -3 20
-43 42 -90 40 -82 93 -194 166 -350 19 -41 58 -124 87 -185 29 -60 65 -137 80
-170 15 -33 48 -103 73 -155 80 -169 128 -272 184 -394 30 -65 58 -126 63
-135 5 -9 20 -41 33 -71 14 -30 55 -117 91 -193 150 -316 174 -422 132 -582
-2 -5 -6 -23 -11 -40 -19 -75 -90 -188 -160 -258 -84 -85 -88 -88 -151 -120
-50 -25 -80 -33 -145 -41 l-37 -5 -43 92 c-23 51 -42 95 -41 100 1 4 -2 7 -8
7 -5 0 -10 4 -10 10 0 10 -24 64 -108 240 -27 58 -75 158 -105 222 -132 277
-166 336 -200 339 -7 1 -28 3 -47 5 -26 3 -1444 11 -2385 14 -5 0 -70 -1 -143
-3 -72 -1 -132 2 -132 6 0 5 -5 5 -12 1 -17 -11 -228 -11 -228 -1 0 5 -5 5
-12 1 -17 -11 -228 -11 -228 -1 0 5 -5 5 -12 1 -17 -11 -228 -11 -228 -1 0 5
-5 5 -12 1 -17 -11 -228 -11 -228 -1 0 5 -5 5 -12 1 -17 -11 -228 -11 -228 -1
0 5 -5 5 -12 1 -17 -11 -228 -11 -228 -1 0 5 -5 5 -12 1 -6 -4 -35 -8 -64 -8
-52 -1 -77 -15 -121 -66 -13 -14 -113 -214 -113 -224 0 -3 -22 -53 -50 -111
-28 -58 -50 -108 -50 -110 0 -3 -45 -99 -127 -275 -25 -52 -52 -113 -61 -135
-9 -22 -18 -42 -22 -45 -3 -3 -12 -19 -19 -36 -11 -27 -17 -31 -44 -29 -41 3
-57 9 -144 52 -40 20 -73 40 -73 45 0 4 -6 8 -13 8 -20 0 -123 105 -164 166
-86 129 -112 307 -69 474 12 47 30 99 39 117 9 18 17 39 17 48 0 8 4 15 9 15
5 0 12 10 16 23 9 28 3 14 68 151 31 65 57 120 57 122 0 3 56 122 149 316 28
60 51 110 51 112 0 2 26 58 57 123 31 65 58 120 58 123 1 3 18 41 39 85 35 73
59 125 141 300 15 33 47 102 71 153 24 52 44 97 44 102 0 4 7 13 15 20 8 6 14
15 13 18 -2 10 19 56 157 347 26 55 76 161 110 235 34 74 82 176 105 225 92
194 127 270 128 275 1 3 19 41 40 85 22 44 52 107 67 140 15 33 44 94 63 135
20 41 37 77 37 80 4 12 147 317 176 373 10 20 15 37 11 37 -4 0 -2 4 3 8 10 7
16 19 51 97 9 22 44 96 76 164 93 194 128 272 128 282 0 5 5 9 10 9 6 0 10 6
10 13 0 8 6 27 14 43 44 90 136 286 136 290 0 6 15 38 166 352 41 84 74 155
74 157 0 2 32 70 70 151 39 80 70 148 70 150 0 2 25 56 56 121 31 65 70 147
86 183 122 266 237 501 265 538 32 43 63 70 107 94 39 21 140 17 188 -8z
m-1505 -6391 c19 -7 16 -22 -15 -83 -121 -231 -327 -429 -572 -550 -107 -53
-350 -130 -350 -111 0 9 20 55 90 206 17 39 43 95 57 125 14 30 38 82 54 115
16 33 29 63 29 67 0 11 79 171 97 198 10 14 25 25 33 25 8 0 29 2 45 6 36 7
513 9 532 2z m3388 -2 c25 -1 81 -109 308 -591 50 -107 67 -150 59 -151 -21
-3 -61 3 -92 16 -19 7 -60 21 -90 30 -277 84 -573 323 -724 585 -60 104 -59
102 -47 110 9 5 481 6 586 1z"/>
<path d="M3788 5305 c-1 -1 -19 -5 -38 -8 -50 -7 -144 -42 -182 -68 -94 -64
-164 -165 -258 -374 -29 -66 -80 -176 -112 -243 -32 -68 -58 -125 -58 -126 0
-2 -19 -43 -42 -92 -23 -49 -42 -91 -43 -94 -2 -7 -66 -145 -172 -369 -29 -62
-53 -115 -53 -116 0 -2 -20 -45 -44 -97 -87 -186 -118 -302 -118 -435 0 -78
29 -184 63 -227 10 -13 19 -27 19 -30 0 -24 132 -131 205 -166 17 -8 33 -19
37 -25 5 -7 299 -11 845 -12 l838 -2 74 37 c146 72 259 217 286 367 11 63 12
146 2 190 -5 22 -10 47 -12 55 -3 15 -18 54 -38 100 -6 14 -11 27 -12 30 0 3
-18 41 -38 84 -20 43 -37 81 -37 84 0 3 -18 41 -39 86 -21 44 -50 106 -64 136
-14 30 -61 133 -106 228 -45 95 -81 175 -81 177 0 2 -22 50 -49 107 -27 57
-72 155 -101 218 -138 305 -168 359 -238 428 -69 69 -155 119 -242 143 -42 11
-184 22 -192 14z m129 -276 c36 -13 77 -37 98 -57 42 -41 145 -241 300 -587
15 -33 48 -103 73 -155 24 -52 66 -142 92 -200 26 -58 76 -166 110 -240 34
-74 71 -155 82 -180 11 -25 31 -69 45 -97 13 -29 23 -54 23 -55 -1 -2 6 -20
14 -40 40 -94 8 -225 -67 -279 -67 -49 -133 -63 -305 -64 l-154 -1 -61 46
c-205 155 -411 163 -594 26 -66 -50 -98 -65 -148 -73 -41 -5 -183 -5 -211 1
-16 3 -38 8 -49 10 -51 10 -102 27 -127 44 -77 51 -124 176 -98 259 12 37 26
70 90 208 183 398 287 626 302 663 7 17 16 32 19 32 4 0 10 12 13 26 15 58
235 508 289 589 93 142 144 166 264 124z"/>
</g>
</svg>
