<svg xmlns="http://www.w3.org/2000/svg" width="1418.667" height="1418.667" preserveAspectRatio="xMidYMid meet" version="1.0" viewBox="0 0 1064 1064"><metadata>Created by potrace 1.14, written by Peter Selinger 2001-2017</metadata><g fill="#000" stroke="none"><path d="M4354 8618 c-38 -57 -71 -105 -74 -108 -6 -5 -109 -153 -181 -260 -24 -36 -46 -67 -50 -70 -3 -3 -34 -48 -70 -100 -35 -52 -66 -97 -69 -100 -3 -3 -30 -41 -60 -85 -30 -44 -58 -81 -62 -83 -4 -2 -8 -10 -8 -18 0 -8 -4 -14 -10 -14 -5 0 -10 -7 -10 -15 0 -8 -4 -15 -8 -15 -5 0 -14 -10 -20 -22 -6 -13 -36 -57 -67 -98 -30 -41 -59 -85 -65 -97 -5 -13 -14 -23 -20 -23 -5 0 -10 -5 -10 -10 0 -6 -19 -37 -42 -69 -24 -33 -50 -69 -58 -82 -8 -12 -30 -42 -47 -66 -18 -24 -33 -46 -33 -49 0 -2 -5 -10 -11 -17 -8 -9 -277 -394 -391 -560 -7 -10 -36 -51 -64 -90 -28 -40 -144 -207 -259 -372 -114 -165 -225 -323 -247 -352 -21 -29 -38 -56 -38 -62 0 -5 -3 -11 -8 -13 -9 -4 -102 -134 -102 -143 0 -4 -6 -13 -12 -20 -24 -26 -35 -40 -54 -70 -10 -17 -23 -34 -27 -40 -4 -5 -47 -66 -95 -135 -48 -69 -105 -151 -127 -183 -22 -32 -44 -65 -50 -75 -5 -9 -12 -19 -16 -22 -3 -3 -25 -34 -50 -70 -24 -36 -46 -67 -49 -70 -3 -3 -14 -18 -24 -35 -11 -16 -23 -34 -28 -40 -10 -12 -145 -206 -178 -257 -14 -21 -28 -38 -32 -38 -5 0 -8 -5 -8 -10 0 -6 -19 -37 -42 -69 -24 -33 -49 -67 -55 -78 -7 -10 -32 -45 -55 -78 -22 -33 -66 -96 -97 -140 -30 -44 -57 -82 -60 -85 -3 -3 -10 -13 -16 -22 -5 -9 -28 -43 -51 -75 -22 -32 -62 -89 -89 -128 -27 -38 -86 -123 -132 -188 -46 -65 -83 -122 -83 -127 0 -6 -3 -10 -8 -10 -4 0 -18 -18 -32 -40 -14 -22 -28 -40 -32 -40 -5 0 -8 -5 -8 -10 0 -6 -29 -51 -65 -101 -36 -49 -65 -94 -65 -99 0 -4 -4 -10 -8 -12 -11 -4 -102 -137 -102 -148 0 -6 -4 -10 -9 -10 -4 0 -31 -35 -59 -77 -28 -43 -78 -116 -111 -162 -33 -47 -64 -92 -70 -100 -6 -9 -36 -51 -66 -94 -30 -42 -55 -81 -55 -86 0 -5 -4 -11 -9 -13 -9 -3 -131 -178 -131 -188 0 -3 319 -5 709 -5 809 0 714 -11 781 95 19 30 37 57 40 60 3 3 14 22 25 43 11 20 22 37 26 37 4 0 12 14 19 30 7 17 16 30 21 30 4 0 11 10 15 23 4 12 10 24 13 27 4 3 18 23 31 45 13 22 28 45 33 50 4 6 53 80 107 165 55 85 104 162 110 170 6 8 47 72 93 142 45 70 120 186 167 258 47 72 90 138 95 148 6 9 38 59 73 111 34 52 62 95 62 97 0 3 84 132 97 149 25 32 153 238 153 245 0 5 3 10 8 12 4 2 23 28 42 58 19 30 38 60 43 65 5 6 33 48 62 95 30 47 59 92 65 100 5 8 23 35 39 60 16 25 65 101 110 169 44 68 81 125 81 127 0 3 16 27 35 54 19 27 35 54 35 58 0 5 9 17 20 27 11 10 20 24 20 32 0 7 5 13 10 13 6 0 10 5 10 10 0 6 16 33 35 60 19 27 35 52 35 55 0 6 40 65 50 75 3 3 23 34 44 70 22 36 43 67 48 68 4 2 8 9 8 16 0 7 9 21 20 31 11 10 17 22 14 26 -3 5 0 9 5 9 6 0 11 5 11 10 0 6 9 20 20 32 11 12 20 28 20 35 0 7 5 13 10 13 6 0 10 6 10 13 0 7 8 22 19 33 10 11 24 31 31 44 7 14 52 83 99 155 47 71 88 134 90 140 2 5 19 31 38 57 18 26 33 50 33 53 0 3 5 11 11 18 6 7 64 95 130 197 65 102 123 192 129 200 5 8 30 46 55 83 25 38 45 71 45 73 0 6 42 67 51 74 3 3 14 21 24 40 10 19 21 37 24 40 4 3 17 22 30 43 12 20 24 37 25 37 1 0 2 -1016 3 -2257 0 -1242 2 -2283 3 -2313 7 -135 70 -280 160 -367 100 -99 226 -140 392 -129 154 10 232 29 356 88 130 61 187 126 390 443 39 61 75 115 81 122 6 7 11 14 11 16 0 2 22 37 48 78 27 41 79 121 117 179 37 58 96 148 130 200 34 52 91 140 127 195 35 55 87 134 114 175 52 80 54 83 99 156 16 27 32 51 35 54 3 3 30 43 60 90 30 47 58 87 63 88 4 2 7 8 7 14 0 6 10 25 23 42 12 17 29 43 36 58 8 16 18 28 23 28 4 0 8 4 8 10 0 8 177 286 231 362 10 15 19 31 19 37 0 5 3 11 8 13 4 2 19 21 33 43 33 51 59 91 82 124 9 14 20 34 23 44 4 9 9 17 13 17 3 0 17 20 31 45 14 25 27 45 30 45 3 0 16 -17 30 -38 14 -20 27 -39 30 -42 3 -3 48 -68 100 -145 51 -77 105 -156 119 -176 14 -20 32 -45 39 -55 54 -81 256 -377 458 -674 51 -74 166 -243 255 -375 89 -132 165 -242 168 -245 3 -3 11 -13 16 -22 13 -22 168 -251 175 -258 3 -3 10 -12 15 -21 39 -63 89 -135 99 -141 6 -4 7 -8 3 -8 -4 0 4 -12 18 -27 14 -15 25 -32 25 -36 0 -10 52 -81 63 -85 4 -2 7 -8 7 -13 0 -11 151 -233 162 -237 4 -2 8 -8 8 -13 0 -6 17 -34 37 -62 l37 -53 793 0 c436 0 793 4 793 8 0 4 -9 17 -20 28 -11 11 -20 23 -20 28 0 4 -9 18 -20 32 -11 14 -48 63 -82 110 -34 47 -66 87 -70 88 -4 2 -8 8 -8 12 0 7 -134 195 -168 236 -5 5 -14 20 -21 31 -6 12 -17 27 -24 35 -12 13 -163 218 -222 303 -17 24 -40 56 -52 72 -12 15 -41 55 -65 88 -25 33 -76 103 -114 155 -39 52 -99 136 -135 185 -35 50 -72 99 -81 109 -10 11 -18 23 -18 27 0 4 -6 14 -13 21 -7 7 -20 24 -29 38 -16 24 -222 306 -250 342 -7 9 -20 26 -28 38 -13 19 -131 181 -183 251 -9 13 -38 53 -64 89 -25 36 -49 67 -52 70 -3 3 -28 38 -55 78 -27 39 -53 72 -58 72 -4 0 -8 5 -8 11 0 5 -26 45 -58 87 -32 42 -72 97 -89 122 -17 25 -41 55 -52 67 -12 12 -21 26 -21 30 0 6 -51 77 -107 148 -5 6 -16 22 -25 36 -9 14 -23 33 -30 41 -7 7 -17 21 -23 30 -20 31 -126 178 -139 190 -7 7 -21 27 -31 43 -11 17 -31 46 -46 65 -14 19 -58 80 -98 135 -40 55 -81 111 -92 125 -56 75 -69 95 -69 106 0 14 88 148 101 152 5 2 9 8 9 14 0 8 100 162 133 203 8 11 82 120 107 159 24 37 94 140 103 151 7 9 61 90 107 161 39 61 195 290 200 294 3 3 25 37 50 75 25 39 47 72 50 75 14 12 130 190 130 199 0 5 4 11 9 13 10 4 101 137 101 148 0 5 4 10 8 12 4 2 30 37 57 78 27 41 51 77 55 80 5 5 239 350 255 378 6 9 30 46 55 81 25 35 50 71 55 80 15 26 109 165 115 171 3 3 10 13 15 22 6 10 43 65 83 123 39 58 72 110 72 114 0 5 4 11 8 13 5 2 31 37 58 78 27 41 52 77 57 78 4 2 7 10 7 17 0 11 -120 13 -697 13 l-698 0 -145 -229 c-80 -126 -152 -242 -160 -257 -8 -15 -18 -28 -22 -30 -5 -2 -8 -10 -8 -17 0 -7 -4 -15 -8 -17 -4 -1 -19 -21 -32 -43 -36 -60 -109 -174 -141 -222 -16 -23 -29 -43 -29 -46 0 -4 -144 -234 -180 -287 -5 -8 -31 -49 -57 -90 -26 -41 -50 -77 -53 -80 -3 -3 -12 -17 -20 -32 -8 -15 -34 -58 -58 -95 -24 -37 -73 -116 -110 -174 -126 -200 -457 -719 -505 -791 -26 -40 -50 -80 -54 -88 -4 -8 -32 -53 -62 -100 -31 -47 -60 -93 -66 -102 -23 -40 -173 -278 -210 -333 -22 -33 -49 -77 -60 -97 -11 -21 -23 -38 -27 -38 -5 0 -8 -5 -8 -11 0 -6 -11 -25 -25 -43 -14 -18 -25 -36 -25 -39 0 -6 -112 -184 -128 -202 -4 -5 -17 -26 -28 -45 -10 -19 -21 -37 -24 -40 -3 -3 -19 -27 -35 -55 -16 -27 -32 -54 -37 -60 -5 -5 -78 -120 -163 -255 -85 -135 -159 -252 -165 -260 -5 -8 -59 -94 -120 -190 -60 -96 -113 -176 -117 -177 -5 -2 -8 1020 -8 2269 l0 2273 -591 3 -590 2 -70 -102z" transform="translate(0.000000,1064.000000) scale(0.100000,-0.100000)"/></g></svg>