<svg xmlns="http://www.w3.org/2000/svg" id="svg" viewBox="0 0 172.22 192.5"><defs><style>.cls-1{fill:#121212;stroke:#121212;stroke-miterlimit:10;fill-rule:evenodd}</style></defs><g id="svgg"><path id="path0" d="M192.41,48.6c-2.71,1.14-5.95,4-5.95,5.19a.5.5,0,0,1-.25.44,8.56,8.56,0,0,0-1.11,2.06c-.48,1.08-1.73,3.77-2.78,6l-2.63,5.59-2.38,5c-.9,1.91-2.52,5.38-3.61,7.72s-2.61,5.6-3.39,7.24-1.77,3.78-2.21,4.73c-1,2.12-2.87,6.19-4.56,9.76-.69,1.47-1.76,3.74-2.36,5-2,4.38-8.47,18.09-9.53,20.32-2.86,6-4.88,10.3-4.88,10.4s-1.84,4.06-4.41,9.44c-.66,1.39-2.85,6.06-4.87,10.39-4.53,9.71-4.68,10-7.23,15.4-1.14,2.4-2.07,4.41-2.07,4.46s-.77,1.7-1.7,3.66l-2.8,5.93c-1.42,3.06-5.57,11.92-7.38,15.75L114,208c-3.86,8.18-2.9,17,2.57,23.65,12.59,15.31,42.39,6.37,52.05-15.62a22.12,22.12,0,0,1,1.21-2.44c.35-.44,53.62-.59,54.29-.15a18.76,18.76,0,0,1,1.8,3.13c7,14.07,20.45,22.77,35.25,22.77,16,0,26.58-16.8,19.44-30.87-.3-.6-.95-1.95-1.42-3s-1.47-3.16-2.2-4.72l-2.27-4.88c-.53-1.13-1.63-3.47-2.45-5.2-5-10.56-5.82-12.22-5.82-12.32s-1.92-4.19-4.77-10.12c-1-2.12-1.85-3.91-1.85-4s-1.07-2.37-2.39-5.12c-2.69-5.61-4.47-9.38-5.86-12.41-.52-1.12-1.52-3.25-2.22-4.72s-1.66-3.53-2.13-4.57-1.68-3.59-2.67-5.67-2.22-4.7-2.75-5.83c-1.28-2.77-3.19-6.81-4.81-10.23-.75-1.56-1.95-4.11-2.68-5.67l-2.75-5.83c-1.49-3.14-2.83-6-4.44-9.5-.53-1.15-1.66-3.56-2.52-5.35-2-4.07-9.26-19.56-10.53-22.31-7.14-15.47-7.66-16.28-11.73-18.17a14.46,14.46,0,0,0-10-.32m7.12,5.33c1.66.6,3,2.18,4.41,5.13l2.6,5.51c.7,1.47,1.93,4.09,2.75,5.82s2,4.22,2.59,5.52,1.65,3.49,2.3,4.88,1.86,3.93,2.67,5.67,2.48,5.27,3.69,7.87,2.81,6,3.55,7.56l3.12,6.53c1,2,1.77,3.75,1.77,3.82s1,2.15,2.16,4.65,2.69,5.66,3.34,7,1.64,3.51,2.22,4.72l2.14,4.57c1.51,3.26,3.58,7.64,5.73,12.12,1,2.08,2.19,4.63,2.67,5.67,1.17,2.56,3,6.4,4.41,9.45.66,1.39,2.37,5,3.79,8l3.93,8.35c.73,1.56,1.93,4.11,2.67,5.67s1.86,4,2.53,5.35,2.92,6.21,5,10.71,4.31,9.18,4.89,10.4c2.56,5.43,3.06,8.06,2.27,11.88-1.31,6.35-7,12.07-12.24,12.31l-1.25.06-2.37-5c-1.3-2.77-2.81-6-3.34-7.09s-1.6-3.39-2.37-5c-3.38-7.16-3.61-7.57-4.51-8s-7.86-.46-53.62-.46H144.35l-1,.71c-.74.51-1.39,1.53-2.36,3.7l-2.06,4.57c-.4.86-1.64,3.55-2.75,6-4.19,9.13-4.64,10.09-4.95,10.5-.91,1.23-6.42-1.22-9.33-4.15-5.15-5.19-5.89-12.28-2.06-19.64.44-.83,1.31-2.65,1.94-4,2.14-4.73,2.73-6,4.58-9.84,1-2.12,1.85-3.91,1.85-4s1-2.16,2.16-4.65c2.61-5.46,3.78-8,5-10.67l2.42-5.19c.82-1.74,2-4.15,2.52-5.36s1.7-3.62,2.52-5.35,1.88-4,2.36-5c1.79-3.88,5.48-11.76,6.93-14.8.83-1.74,1.86-3.93,2.29-4.89.68-1.49,3.87-8.32,6.84-14.64.49-1,1.41-3,2.06-4.41l2.82-6c.9-1.9,1.89-4,2.21-4.72s1.41-3,2.42-5.12,1.84-3.92,1.84-4,1.27-2.79,2.83-6,2.84-5.93,2.84-6,.62-1.41,1.38-3c2.53-5.37,4-8.58,5.14-11,.6-1.3,1.63-3.49,2.29-4.88L190,59.5c2.6-5.54,5.27-7.09,9.52-5.57m-6.26,54.62c-3.84,1.17-6.08,3.5-8.46,8.77-1.07,2.38-2.1,4.63-4.49,9.77-.57,1.21-1.35,2.91-1.74,3.78s-1.24,2.7-1.89,4.09-2,4.29-3,6.46-2.5,5.43-3.35,7.26c-4.2,9.1-2.76,15.58,4.29,19.3l1.89,1h41.25l1.91-1a12.49,12.49,0,0,0,6.66-12.13c-.19-2.2-.52-3.09-3.92-10.5-3.34-7.26-3.6-7.82-5.16-11.12-.84-1.78-1.53-3.29-1.53-3.35s-.62-1.43-1.38-3-2.26-4.86-3.33-7.2c-2.92-6.35-3.22-6.9-4.54-8.4a12.66,12.66,0,0,0-13.23-3.68m6.35,5.64c1.89.79,2.88,2,4.55,5.49l3.3,6.93c.94,2,1.95,4.19,2.23,4.89s1.12,2.5,1.86,4,1.35,2.82,1.35,2.89.78,1.77,1.74,3.78,1.73,3.71,1.73,3.77.75,1.72,1.68,3.69c2.41,5.15,2.56,5.59,2.51,7.55-.1,4.67-3.47,6.74-10.61,6.53l-3.84-.11-1.4-1.15c-5-4.08-10.9-4-15.37.18-2.1,2-10.85,1.47-13.4-.77a7.45,7.45,0,0,1-2.33-5.48c.15-1.3.39-1.89,3.11-7.69.85-1.8,1.54-3.32,1.54-3.37s.78-1.76,1.73-3.78,1.73-3.72,1.73-3.77.76-1.71,1.68-3.67,2.44-5.25,3.38-7.31c5.9-12.9,7.76-14.74,12.83-12.62m.21,48.85c.54.37.2.42-2.66.42-2.4,0-3.19-.09-2.93-.34.9-.91,4.32-1,5.59-.08M163,213.67c.24.62-1.4,3.73-3.3,6.26a32,32,0,0,1-17.2,12.16c-5.23,1.64-5.23,1.63-3-3.1,2-4.22,3.36-7.26,4.34-9.46a35.71,35.71,0,0,1,2.88-5.75c.63-.75,16-.85,16.3-.11m86,2.87c1.49,3,2.54,5.19,6,12.54,2.23,4.81,2.29,4.78-4.39,2.56A33.78,33.78,0,0,1,232,215.84c-1.42-2.81-1.92-2.63,7.28-2.54l8.11.09,1.58,3.15" class="cls-1" transform="translate(-111.17 -47.37)"/></g></svg>