<svg xmlns="http://www.w3.org/2000/svg" xmlns:xlink="http://www.w3.org/1999/xlink" viewBox="0 0 340.16 329.38"><defs><style>.cls-1{fill:#350e0e;}.cls-2{fill:url(#linear-gradient);}.cls-3{fill:url(#linear-gradient-2);}.cls-4{fill:url(#linear-gradient-3);}.cls-5{fill:url(#linear-gradient-4);}.cls-6{fill:url(#linear-gradient-5);}</style><linearGradient id="linear-gradient" x1="376.9" y1="331.27" x2="476.42" y2="331.27" gradientUnits="userSpaceOnUse"><stop offset="0" stop-color="#747678"/><stop offset="0.04" stop-color="#828486"/><stop offset="0.11" stop-color="#949699"/><stop offset="0.19" stop-color="#9fa1a4"/><stop offset="0.26" stop-color="#a3a5a8"/><stop offset="0.28" stop-color="#a3a5a8"/><stop offset="0.61" stop-color="#5d5e61"/><stop offset="1" stop-color="#231f20"/></linearGradient><linearGradient id="linear-gradient-2" x1="243.13" y1="440.93" x2="317.3" y2="440.93" gradientUnits="userSpaceOnUse"><stop offset="0" stop-opacity="0.8"/><stop offset="0.11" stop-color="#2e2e2f" stop-opacity="0.86"/><stop offset="0.25" stop-color="#606163" stop-opacity="0.92"/><stop offset="0.37" stop-color="#848689" stop-opacity="0.96"/><stop offset="0.47" stop-color="#9b9da0" stop-opacity="0.99"/><stop offset="0.53" stop-color="#a3a5a8"/><stop offset="1" stop-color="#97999b"/><stop offset="1" stop-color="#a3a5a8"/><stop offset="1"/><stop offset="1" stop-color="#747678"/><stop offset="1"/></linearGradient><linearGradient id="linear-gradient-3" x1="225.05" y1="429.47" x2="320.87" y2="429.47" gradientUnits="userSpaceOnUse"><stop offset="0" stop-color="#e6e7e8"/><stop offset="0.01" stop-color="#e6e7e8"/><stop offset="0.32" stop-color="#e6e7e8"/><stop offset="0.78" stop-color="#5d5e61"/><stop offset="0.97" stop-color="#231f20"/><stop offset="1" stop-color="#a3a5a8"/><stop offset="1" stop-color="#fff"/></linearGradient><linearGradient id="linear-gradient-4" x1="316.64" y1="429.78" x2="446.37" y2="429.78" gradientUnits="userSpaceOnUse"><stop offset="0.01" stop-color="#231f20"/><stop offset="0.02" stop-color="#272324"/><stop offset="0.08" stop-color="#3f3d3f"/><stop offset="0.15" stop-color="#504f52"/><stop offset="0.22" stop-color="#5a5a5d"/><stop offset="0.29" stop-color="#5d5e61"/><stop offset="0.4" stop-color="#727376"/><stop offset="0.64" stop-color="#aaabae"/><stop offset="0.72" stop-color="#bebfc2"/><stop offset="1" stop-color="#c4c6c8"/><stop offset="1" stop-color="#a3a5a8"/><stop offset="1" stop-color="#d7d8da"/><stop offset="1" stop-color="#c4c6c8"/><stop offset="1" stop-color="#a3a5a8"/><stop offset="1" stop-color="#c4c6c8"/></linearGradient><linearGradient id="linear-gradient-5" x1="136.63" y1="378.42" x2="476.8" y2="378.42" gradientUnits="userSpaceOnUse"><stop offset="0.01" stop-color="#231f20"/><stop offset="0.02" stop-color="#272324"/><stop offset="0.07" stop-color="#3f3d3f"/><stop offset="0.13" stop-color="#504f52"/><stop offset="0.18" stop-color="#5a5a5d"/><stop offset="0.24" stop-color="#5d5e61"/><stop offset="0.46" stop-color="#c4c6c8"/><stop offset="0.73" stop-color="#d7d8da"/><stop offset="0.81" stop-color="#c4c6c8"/><stop offset="0.93" stop-color="#c4c6c8"/><stop offset="1" stop-color="#a3a5a8"/></linearGradient></defs><g id="Layer_2" data-name="Layer 2"><path class="cls-1" d="M220.2,502" transform="translate(-136.63 -215.96)"/><path class="cls-2" d="M417.78,258.83c1.46-1,4,2,11.56,5.93,17.31,7.15,23.93,10.42,40.11,22.7,5.53,4,6.24,4.55,6.83,5.85,2.6,16.1-31.93,50.29-35,53.71-3.4,4.91-3.55,3.71-35.53,33.6-14.83,13.85-26.11,24.69-28.64,23.14-1-2.76,1.89-20,2.26-26,1.44-12.14,1.55-12.91,2.35-14.54,2.14-4.66,10.4-11.7,15.88-18.77,14.52-22.68,25.23-47.68,22.3-72.2C418.61,265.21,416,260,417.78,258.83Z" transform="translate(-136.63 -215.96)"/><path class="cls-3" d="M317.22,429a55.06,55.06,0,0,0-1-7.26c-14.38,13.33-39.83,21.78-58.93,14.48-21.06-9-22.89,29.93,23.64,23.22,12.5-2.68,26.36-6.83,35.52-15.53.67-1.38.55-2.45.47-4.41C316.73,433.62,317.55,434.23,317.22,429Z" transform="translate(-136.63 -215.96)"/><path class="cls-4" d="M318.21,374.69c.19-1.58,2.27-18.31,2.66-21-9.24,13.87-33.64,64.18-38,75.49-5.26,13.52-28.36,51.14-51.59,67-1.92,1.31-6.77,4.46-6.13,6.64.91,3.09,12.46,2.74,20.65,1.17,0,0,15.2-1.32,26.12-11.94C290.25,474.21,306.61,421.25,318.21,374.69Z" transform="translate(-136.63 -215.96)"/><path class="cls-5" d="M341,318.82c24.84-8.78,37.31-2.74,51.17-.15C379.75,368.83,352.52,483,429,501.65c8.6,1.44,13-.11,15.73,2.9,4.7,5.17-1.47,17.16-8.31,24.39-13.16,13.9-33.79,15.5-39.26,15.92-46.74,5.61-76.89-38.54-80.51-104.36C317.59,385,311.73,340.49,341,318.82Z" transform="translate(-136.63 -215.96)"/><path class="cls-6" d="M384.05,216c-110,2.25-232.4,136.63-245.67,240.39C119.47,564.82,260,562.8,277.6,484.94c-7.64,10.92-39.28,28.61-62.79,13.33-38.75-46.3,41.75-164.13,86-196.33,58.84-59.12,133.3-48.47,176-6-4-22.81-19.52-40.06-42-56.26C420.57,228.06,403.23,217.64,384.05,216Z" transform="translate(-136.63 -215.96)"/></g></svg>